<mxfile host="app.diagrams.net" agent="Mozilla/5.0 (X11; Linux x86_64) AppleWebKit/537.36 (KHTML, like Gecko) Chrome/128.0.0.0 Safari/537.36" version="24.7.16">
  <diagram name="Page-1" id="w7kpQyd0XqjMViE3QfmT">
    <mxGraphModel dx="1834" dy="820" grid="1" gridSize="10" guides="1" tooltips="1" connect="1" arrows="1" fold="1" page="0" pageScale="1" pageWidth="827" pageHeight="1169" background="none" math="0" shadow="0">
      <root>
        <mxCell id="0" />
        <mxCell id="1" parent="0" />
        <mxCell id="2" value="User (Browser)" style="ellipse;whiteSpace=wrap;html=1;aspect=fixed;strokeColor=#000000;fillColor=#FFFFFF;" parent="1" vertex="1" connectable="0">
          <mxGeometry x="-80" y="40" width="100" height="60" as="geometry" />
        </mxCell>
        <mxCell id="3" value="Frontend (ReactJS)" style="rounded=0;whiteSpace=wrap;html=1;strokeColor=#000000;fillColor=#FFDDDD;" parent="1" vertex="1" connectable="0">
          <mxGeometry x="150" y="140" width="160" height="60" as="geometry" />
        </mxCell>
        <mxCell id="4" value="API Gateway (AWS API Gateway / Azure API Management)" style="shape=parallelogram;whiteSpace=wrap;html=1;strokeColor=#000000;fillColor=#DDFFDD;" parent="1" vertex="1" connectable="0">
          <mxGeometry x="120" y="240" width="230" height="60" as="geometry" />
        </mxCell>
        <mxCell id="5" value="Backend (Python FastAPI/Flask)" style="rounded=0;whiteSpace=wrap;html=1;strokeColor=#000000;fillColor=#DDDDFF;" parent="1" vertex="1" connectable="0">
          <mxGeometry x="145" y="340" width="180" height="60" as="geometry" />
        </mxCell>
        <mxCell id="6" value="Pretrained Model" style="rounded=0;whiteSpace=wrap;html=1;strokeColor=#000000;fillColor=#FFFFDD;" parent="1" vertex="1" connectable="0">
          <mxGeometry x="350" y="460" width="160" height="60" as="geometry" />
        </mxCell>
        <mxCell id="7" value="Database (Optional)" style="shape=cylinder;whiteSpace=wrap;html=1;strokeColor=#000000;fillColor=#DDDDDD;" parent="1" vertex="1" connectable="0">
          <mxGeometry x="150" y="540" width="120" height="80" as="geometry" />
        </mxCell>
        <mxCell id="8" value="CI/CD Pipeline" style="rounded=0;whiteSpace=wrap;html=1;strokeColor=#000000;fillColor=#DDDDFF;" parent="1" vertex="1" connectable="0">
          <mxGeometry x="610" y="240" width="160" height="60" as="geometry" />
        </mxCell>
        <mxCell id="9" style="edgeStyle=orthogonalEdgeStyle;rounded=0;orthogonalLoop=1;jettySize=auto;exitX=0.5;exitY=1;entryX=0.5;entryY=0;strokeColor=#000000;endArrow=block;endFill=1;" parent="1" source="2" target="3" edge="1">
          <mxGeometry relative="1" as="geometry" />
        </mxCell>
        <mxCell id="10" style="edgeStyle=orthogonalEdgeStyle;rounded=0;orthogonalLoop=1;jettySize=auto;exitX=0.5;exitY=1;entryX=0.5;entryY=0;strokeColor=#000000;endArrow=block;endFill=1;" parent="1" source="3" target="4" edge="1">
          <mxGeometry relative="1" as="geometry" />
        </mxCell>
        <mxCell id="11" style="edgeStyle=orthogonalEdgeStyle;rounded=0;orthogonalLoop=1;jettySize=auto;exitX=0.5;exitY=1;entryX=0.5;entryY=0;strokeColor=#000000;endArrow=block;endFill=1;" parent="1" source="4" target="5" edge="1">
          <mxGeometry relative="1" as="geometry" />
        </mxCell>
        <mxCell id="12" style="edgeStyle=orthogonalEdgeStyle;rounded=0;orthogonalLoop=1;jettySize=auto;exitX=0.5;exitY=1;entryX=0.5;entryY=0;strokeColor=#000000;endArrow=block;endFill=1;" parent="1" source="5" target="6" edge="1">
          <mxGeometry relative="1" as="geometry" />
        </mxCell>
        <mxCell id="13" style="edgeStyle=orthogonalEdgeStyle;rounded=0;orthogonalLoop=1;jettySize=auto;exitX=0.5;exitY=1;entryX=0.5;entryY=0;strokeColor=#000000;endArrow=block;endFill=1;" parent="1" source="5" target="7" edge="1">
          <mxGeometry relative="1" as="geometry" />
        </mxCell>
        <mxCell id="15" style="edgeStyle=orthogonalEdgeStyle;rounded=0;orthogonalLoop=1;jettySize=auto;exitX=0.5;exitY=1;entryX=0.5;entryY=0;strokeColor=#000000;endArrow=block;endFill=1;" parent="1" source="8" target="1" edge="1">
          <mxGeometry relative="1" as="geometry" />
        </mxCell>
      </root>
    </mxGraphModel>
  </diagram>
</mxfile>
